<?xml version="1.0" encoding="utf-8"?>
<!-- Generator: Adobe Illustrator 19.1.0, SVG Export Plug-In . SVG Version: 6.00 Build 0)  -->
<svg version="1.1" id="Ebene_1" xmlns="http://www.w3.org/2000/svg" xmlns:xlink="http://www.w3.org/1999/xlink" x="0px" y="0px"
	 viewBox="-133 134.5 16 16" xml:space="preserve" class="stop-svg">
<title>Icon_20_</title>
<desc>Created with Sketch.</desc>
<g id="IPhone">
	<g id="Icon_20_" transform="translate(0.000000, -2.000000)">
		<path id="Shape" d="M-125,136.5c-4.4,0-8,3.6-8,8c0,4.4,3.6,8,8,8s8-3.6,8-8C-117,140.1-120.6,136.5-125,136.5L-125,136.5z
			 M-125,150.9c-3.5,0-6.4-2.9-6.4-6.4c0-3.5,2.9-6.4,6.4-6.4c3.5,0,6.4,2.9,6.4,6.4C-118.6,148-121.5,150.9-125,150.9L-125,150.9z"
			/>
		<g class="st0">
			<path d="M-126.4,140.9v2.7h2.9v-2.7h1.6v7.1h-1.6V145h-2.9v3.1h-1.6v-7.1H-126.4z"/>
		</g>
	</g>
</g>
</svg>
